IKResults
version=1
nRows=10
nColumns=63
inDegrees=yes

Units are S.I. units (second, meters, Newtons, ...)
If the header above contains a line with 'inDegrees', this indicates whether rotational values are in degrees (yes) or radians (no).

endheader
time	pelvis_tilt	pelvis_list	pelvis_rotation	pelvis_tx	pelvis_ty	pelvis_tz	hip_flexion_r	hip_adduction_r	hip_rotation_r	knee_angle_r	knee_angle_r_beta	ankle_angle_r	subtalar_angle_r	mtp_angle_r	hip_flexion_l	hip_adduction_l	hip_rotation_l	knee_angle_l	knee_angle_l_beta	ankle_angle_l	subtalar_angle_l	mtp_angle_l	L5_S1_Flex_Ext	L5_S1_Lat_Bending	L5_S1_axial_rotation	L4_L5_Flex_Ext	L4_L5_Lat_Bending	L4_L5_axial_rotation	L3_L4_Flex_Ext	L3_L4_Lat_Bending	L3_L4_axial_rotation	L2_L3_Flex_Ext	L2_L3_Lat_Bending	L2_L3_axial_rotation	L1_L2_Flex_Ext	L1_L2_Lat_Bending	L1_L2_axial_rotation	L1_T12_Flex_Ext	L1_T12_Lat_Bending	L1_T12_axial_rotation	Abs_r3	Abs_r2	Abs_r1	Abs_t1	Abs_t2	neck_flexion	neck_bending	neck_rotation	arm_flex_r	arm_add_r	arm_rot_r	elbow_flex_r	pro_sup_r	wrist_flex_r	wrist_dev_r	arm_flex_l	arm_add_l	arm_rot_l	elbow_flex_l	pro_sup_l	wrist_flex_l	wrist_dev_l
      0.03333333	    -26.89935908	      1.58611171	      6.79437577	     -0.89246848	      0.91657159	     -0.21383603	     26.42342004	    -11.27972643	    -18.13284236	     10.18230988	      0.17771483	     13.29965454	     -1.51111853	      0.00000000	     27.83922657	     -2.35775535	     -4.88611266	     12.40299384	      0.21647308	      5.66425193	    -18.27554286	      0.00000000	      4.33780889	     -0.60380007	     -0.51872033	      8.05574489	     -0.80305410	     -0.55114035	      7.12658622	     -1.46807950	     -0.55114035	      4.95768178	     -1.46807950	     -0.45388029	      4.02808933	     -1.23126911	     -0.42146027	      2.47862400	     -0.93528631	     -0.38904025	     30.98453511	     -6.83030719	     -2.88496685	      0.00000000	      0.00000000	     11.84608167	      2.44052088	     -8.12402652	    -15.78058560	     -4.39882274	     -8.86565646	     24.88281838	     89.99559364	      0.00000000	      0.00000000	    -18.47254554	    -13.36631900	      5.94634880	     41.92799591	     89.99559364	      0.00000000	      0.00000000
      0.06666667	    -26.93234260	      1.57276590	      6.81382684	     -0.89244167	      0.91647935	     -0.21385712	     26.44964601	    -11.27902504	    -18.13303923	     10.18070005	      0.17768674	     13.30892227	     -1.51310227	      0.00000000	     27.86197022	     -2.36302358	     -4.88223604	     12.39723549	      0.21637258	      5.68025008	    -18.26516673	      0.00000000	      4.32775484	     -0.60418108	     -0.51572936	      8.03707351	     -0.80356083	     -0.54796245	      7.11006842	     -1.46900587	     -0.54796245	      4.94619101	     -1.46900587	     -0.45126319	      4.01875314	     -1.23204605	     -0.41903011	      2.47287911	     -0.93587649	     -0.38679702	     30.91272004	     -6.83461716	     -2.86833201	      0.00000000	      0.00000000	     11.83445909	      2.44046407	     -8.12666935	    -15.80236704	     -4.41354381	     -8.86805074	     24.87367861	     89.99559364	      0.00000000	      0.00000000	    -18.53858839	    -13.37979811	      5.94959786	     41.90928817	     89.99559364	      0.00000000	      0.00000000
      0.10000000	    -27.04923025	      1.59762860	      6.76220290	     -0.89149086	      0.91616065	     -0.21369414	     26.59954423	    -11.30263971	    -18.16495007	     10.36354988	      0.18087807	     13.50733591	     -1.61104837	      0.00000000	     27.87320612	     -2.35889243	     -4.72926638	     12.40666039	      0.21653707	      6.11530061	    -18.30309111	      0.00000000	      4.33936166	     -0.60877137	     -0.51544198	      8.05862854	     -0.80966592	     -0.54765711	      7.12913728	     -1.48016670	     -0.54765711	      4.95945644	     -1.48016670	     -0.45101174	      4.02953124	     -1.24140657	     -0.41879661	      2.47951125	     -0.94298685	     -0.38658149	     30.99562642	     -6.88654346	     -2.86673368	      0.00000000	      0.00000000	     11.47513951	      2.46298578	     -8.26748220	    -15.87364731	     -4.39230844	     -8.86102189	     24.65867569	     89.99559364	      0.00000000	      0.00000000	    -18.82789397	    -13.43027363	      5.99982347	     41.51015262	     89.99559364	      0.00000000	      0.00000000
      0.13333333	    -28.18039468	      1.42415426	      6.81402017	     -0.89158344	      0.91488160	     -0.21422392	     28.00522079	    -11.38903450	    -18.22566017	     10.86649567	      0.18965613	     13.51441058	     -1.64201024	      0.00000000	     29.09450766	     -2.36756587	     -4.66878840	     12.48900839	      0.21797432	      6.17950545	    -18.23950049	      0.00000000	      4.51756792	     -0.60446894	     -0.47877129	      8.38957539	     -0.80394369	     -0.50869450	      7.42191234	     -1.46970579	     -0.50869450	      5.16312838	     -1.46970579	     -0.41892488	      4.19501357	     -1.23263307	     -0.38900167	      2.58133831	     -0.93632239	     -0.35907847	     32.26853591	     -6.83787357	     -2.66278229	      0.00000000	      0.00000000	     10.29308816	      2.21411810	     -8.75709742	    -16.39878687	     -4.55471272	     -8.66288090	     24.46102902	     89.99559364	      0.00000000	      0.00000000	    -19.14276509	    -13.51336446	      6.67842415	     40.88317177	     89.99559364	      0.00000000	      0.00000000
      0.16666667	    -29.24227249	      1.39543993	      6.99153220	     -0.89221480	      0.91344974	     -0.21493052	     29.41024292	    -11.71026024	    -18.39044324	     11.52935903	      0.20122528	     13.65481965	     -1.64423552	      0.00000000	     30.38066344	     -2.18439849	     -4.67159598	     12.76446600	      0.22278196	      6.31901573	    -18.21671388	      0.00000000	      4.65557141	     -0.61691563	     -0.47975513	      8.64586167	     -0.82049778	     -0.50973982	      7.64863828	     -1.49996865	     -0.50973982	      5.32085257	     -1.49996865	     -0.41978574	      4.32316361	     -1.25801434	     -0.38980104	      2.66019351	     -0.95560230	     -0.35981635	     33.25428105	     -6.97867294	     -2.66825409	      0.00000000	      0.00000000	      9.43501359	      2.15224635	     -8.93364391	    -16.82056458	     -4.64630143	     -8.62280607	     24.46716985	     89.99559364	      0.00000000	      0.00000000	    -19.49428035	    -13.57728090	      6.98475316	     40.13850972	     89.99559364	      0.00000000	      0.00000000
      0.20000000	    -30.69255745	      1.29216387	      7.27420222	     -0.89359621	      0.91129324	     -0.21570436	     31.35323498	    -12.11778766	    -18.75837276	     12.44537304	      0.21721274	     13.84479600	     -1.49003220	      0.00000000	     32.31018569	     -1.99261998	     -4.69900461	     13.36189098	      0.23320899	      6.46529312	    -18.23727289	      0.00000000	      4.84148421	     -0.63155904	     -0.48816500	      8.99112032	     -0.83997352	     -0.51867531	      7.95407440	     -1.53557265	     -0.51867531	      5.53333230	     -1.53557265	     -0.42714437	      4.49580223	     -1.28787520	     -0.39663406	      2.76642408	     -0.97828495	     -0.36612375	     34.58223754	     -7.14432218	     -2.71502727	      0.00000000	      0.00000000	      8.50008003	      2.17154199	     -9.10273102	    -17.47916010	     -4.72487154	     -8.77771497	     24.77115333	     89.99559364	      0.00000000	      0.00000000	    -19.95521839	    -13.73589475	      7.36958625	     39.48794196	     89.99559364	      0.00000000	      0.00000000
      0.23333333	    -32.13632550	      1.16413241	      7.81631744	     -0.89545477	      0.90873809	     -0.21720732	     33.25463653	    -12.69237507	    -19.23222017	     13.38853150	      0.23367396	     14.15738685	     -1.43766458	      0.00000000	     34.35049276	     -1.64178079	     -4.70254360	     14.04142541	      0.24506911	      6.64548792	    -18.26143664	      0.00000000	      5.00789231	     -0.65048451	     -0.53714779	      9.30015681	     -0.86514440	     -0.57071952	      8.22746628	     -1.58158803	     -0.57071952	      5.72352012	     -1.58158803	     -0.47000431	      4.65032880	     -1.32646801	     -0.43643258	      2.86150967	     -1.00760050	     -0.40286084	     35.77087400	     -7.35841085	     -2.98745485	      0.00000000	      0.00000000	      7.41955048	      2.21860677	     -9.21933938	    -18.19518097	     -4.83601897	     -9.14153438	     25.26078498	     89.99559364	      0.00000000	      0.00000000	    -20.27778371	    -13.79694921	      7.62979782	     38.46323720	     89.99559364	      0.00000000	      0.00000000
      0.26666667	    -33.74936508	      1.00237155	      8.47698429	     -0.89785038	      0.90538372	     -0.21873170	     35.44579666	    -13.39061102	    -19.65498164	     14.56779462	      0.25425598	     14.54545010	     -1.49589559	      0.00000000	     36.74213399	     -1.22823704	     -4.56509425	     15.00972309	      0.26196909	      6.88431747	    -18.30917669	      0.00000000	      5.18214024	     -0.67573077	     -0.60305564	      9.62375265	     -0.89872192	     -0.64074662	      8.51373821	     -1.64297178	     -0.64074662	      5.92266809	     -1.64297178	     -0.52767369	      4.81213543	     -1.37795018	     -0.48998271	      2.96107494	     -1.04670696	     -0.45229173	     37.01550955	     -7.64400157	     -3.35401457	      0.00000000	      0.00000000	      6.37969990	      2.27668858	     -9.27153287	    -19.01899789	     -4.93362330	     -9.55925428	     25.90309493	     89.99559364	      0.00000000	      0.00000000	    -20.68262577	    -13.96462887	      7.77236486	     37.51878458	     89.99559364	      0.00000000	      0.00000000
      0.30000000	    -35.51403280	      0.02249016	      9.89878878	     -0.90156951	      0.90095287	     -0.22065342	     37.55818520	    -13.76297889	    -20.55560546	     15.52981570	      0.27104642	     15.04691953	     -2.33520520	      0.00000000	     39.89065314	     -1.05462373	     -3.47083683	     16.54543032	      0.28877224	      7.28625202	    -18.31699131	      0.00000000	      5.35916826	     -0.65630152	     -0.83468547	      9.95251137	     -0.87288102	     -0.88685331	      8.80457753	     -1.59573152	     -0.88685331	      6.12499340	     -1.59573152	     -0.73034979	      4.97652364	     -1.33833006	     -0.67818195	      3.06222874	     -1.01661106	     -0.62601410	     38.28000295	     -7.42421408	     -4.64227019	      0.00000000	      0.00000000	      5.22283045	      2.35913554	     -9.28404736	    -19.92120844	     -5.11191281	    -10.63361856	     26.60774641	     89.99559364	      0.00000000	      0.00000000	    -20.99196542	    -13.97745367	      7.59647552	     36.81340266	     89.99559364	      0.00000000	      0.00000000
      0.33333333	    -37.21894542	     -0.17473193	     10.50274636	     -0.90574513	      0.89566099	     -0.22204538	     40.17660241	    -14.59476331	    -20.50741342	     17.10204531	      0.29848700	     15.93647446	     -2.78189746	      0.00000000	     42.68922925	     -0.60773020	     -3.34698849	     18.04151309	      0.31488381	      7.89469691	    -18.38065850	      0.00000000	      5.48828911	     -0.68299256	     -0.89011325	     10.19230171	     -0.90838011	     -0.94574532	      9.01671018	     -1.66062812	     -0.94574532	      6.27256563	     -1.66062812	     -0.77884909	      5.09642527	     -1.39275843	     -0.72321701	      3.13600840	     -1.05795548	     -0.66758493	     39.20230030	     -7.72614847	     -4.95054284	      0.00000000	      0.00000000	      4.25819790	      2.60885951	     -9.17875913	    -20.51446071	     -5.40071828	    -10.62300352	     26.99947718	     89.99559364	      0.00000000	      0.00000000	    -21.34031012	    -14.23328480	      7.19123141	     36.54122357	     89.99559364	      0.00000000	      0.00000000
